<svg width="40" height="40" viewBox="0 0 40 40" fill="none" xmlns="http://www.w3.org/2000/svg">
<rect x="4.25" y="4.25" width="31.5" height="31.5" rx="15.75" stroke="#94989A" stroke-width="0.5"/>
<path fill-rule="evenodd" clip-rule="evenodd" d="M23.7381 24.6426C23.7778 24.6588 23.8202 24.667 23.8631 24.6667L23.8716 24.6581C23.9364 24.6612 24.0006 24.6443 24.0555 24.6097C24.1104 24.5751 24.1533 24.5246 24.1785 24.4648C24.2037 24.405 24.21 24.339 24.1964 24.2755C24.1829 24.2121 24.1502 24.1544 24.1028 24.1101L20.1982 20.0599L24.1028 15.9155C24.1401 15.8865 24.1705 15.8498 24.1922 15.8079C24.2138 15.766 24.2261 15.7199 24.2281 15.6728C24.2301 15.6257 24.2219 15.5787 24.204 15.535C24.186 15.4914 24.1588 15.4522 24.1243 15.4201C24.0897 15.388 24.0485 15.3639 24.0037 15.3493C23.9588 15.3347 23.9113 15.33 23.8645 15.3356C23.8177 15.3412 23.7726 15.3569 23.7324 15.3816C23.6923 15.4063 23.658 15.4395 23.6319 15.4788L19.5132 19.8458C19.4566 19.9061 19.4251 19.9857 19.4251 20.0685C19.4251 20.1512 19.4566 20.2308 19.5132 20.2911L23.6319 24.5725C23.6623 24.6026 23.6984 24.6265 23.7381 24.6426ZM20.313 24.6426C20.3527 24.6588 20.3951 24.667 20.438 24.6667L20.4465 24.6581C20.5113 24.6612 20.5755 24.6443 20.6304 24.6097C20.6852 24.5751 20.7282 24.5246 20.7534 24.4648C20.7786 24.405 20.7849 24.339 20.7713 24.2755C20.7578 24.2121 20.7251 24.1544 20.6777 24.1101L16.7731 20.0599L20.6777 15.9155C20.715 15.8865 20.7454 15.8498 20.7671 15.8079C20.7887 15.766 20.801 15.7199 20.803 15.6728C20.805 15.6257 20.7968 15.5787 20.7789 15.535C20.7609 15.4914 20.7337 15.4522 20.6992 15.4201C20.6646 15.388 20.6234 15.3639 20.5786 15.3493C20.5337 15.3347 20.4862 15.33 20.4394 15.3356C20.3926 15.3412 20.3475 15.3569 20.3073 15.3816C20.2672 15.4063 20.2329 15.4395 20.2068 15.4788L16.0881 19.8458C16.0315 19.9061 16 19.9858 16 20.0685C16 20.1512 16.0315 20.2308 16.0881 20.2911L20.2068 24.5725C20.2372 24.6026 20.2733 24.6265 20.313 24.6426Z" fill="#94989A"/>
</svg>
