<svg width="40" height="40" viewBox="0 0 40 40" fill="none" xmlns="http://www.w3.org/2000/svg">
<rect x="4.25" y="4.25" width="31.5" height="31.5" rx="15.75" stroke="#94989A" stroke-width="0.5"/>
<path d="M21.7714 24.6667C21.7285 24.667 21.686 24.6588 21.6464 24.6426C21.6067 24.6265 21.5706 24.6026 21.5402 24.5725L17.4215 20.2911C17.3649 20.2308 17.3334 20.1512 17.3334 20.0685C17.3334 19.9857 17.3649 19.9061 17.4215 19.8458L21.5402 15.4788C21.5662 15.4395 21.6005 15.4063 21.6407 15.3816C21.6809 15.3569 21.7259 15.3412 21.7728 15.3356C21.8196 15.33 21.8671 15.3347 21.9119 15.3493C21.9568 15.3639 21.9979 15.388 22.0325 15.4201C22.0671 15.4522 22.0943 15.4914 22.1122 15.535C22.1302 15.5787 22.1384 15.6257 22.1364 15.6728C22.1343 15.7199 22.1221 15.766 22.1004 15.8079C22.0788 15.8498 22.0483 15.8865 22.0111 15.9155L18.1065 20.0599L22.0025 24.1101C22.0499 24.1544 22.0826 24.2121 22.0961 24.2755C22.1097 24.339 22.1034 24.405 22.0782 24.4648C22.053 24.5246 22.0101 24.5751 21.9552 24.6097C21.9003 24.6443 21.8361 24.6612 21.7714 24.6581V24.6667Z" fill="#94989A"/>
</svg>
