<svg width="21" height="20" viewBox="0 0 21 20" fill="none" xmlns="http://www.w3.org/2000/svg">
<g clip-path="url(#clip0_315_954)">
<path d="M20.3358 10.0625C20.3358 4.505 15.8583 0 10.3358 0C4.81081 0.00125 0.333313 4.505 0.333313 10.0638C0.333313 15.085 3.99081 19.2475 8.77081 20.0025V12.9713H6.23331V10.0638H8.77331V7.845C8.77331 5.32375 10.2671 3.93125 12.5508 3.93125C13.6458 3.93125 14.7896 4.1275 14.7896 4.1275V6.6025H13.5283C12.2871 6.6025 11.8996 7.37875 11.8996 8.175V10.0625H14.6721L14.2296 12.97H11.8983V20.0012C16.6783 19.2463 20.3358 15.0838 20.3358 10.0625Z" fill="#295135"/>
</g>
<defs>
<clipPath id="clip0_315_954">
<rect width="20" height="20" fill="white" transform="translate(0.333374)"/>
</clipPath>
</defs>
</svg>
