<svg width="54" height="55" viewBox="0 0 54 55" fill="none" xmlns="http://www.w3.org/2000/svg">
<g clip-path="url(#clip0_527_2632)">
<path d="M38.3144 0H15.6856C7.02267 0 0 7.15272 0 15.9761V39.0239C0 47.8473 7.02267 55 15.6856 55H38.3144C46.9773 55 54 47.8473 54 39.0239V15.9761C54 7.15272 46.9773 0 38.3144 0Z" fill="#295135"/>
<path d="M32.9052 43.01H21.0985C15.9583 43.01 11.7749 38.7492 11.7749 33.5138V21.4884C11.7749 16.253 15.9583 11.9922 21.0985 11.9922H32.9052C38.0454 11.9922 42.2287 16.253 42.2287 21.4884V33.5138C42.2287 38.7492 38.0454 43.01 32.9052 43.01ZM21.0945 14.3119C17.2117 14.3119 14.0485 17.5296 14.0485 21.4884V33.5138C14.0485 37.4685 17.2077 40.6903 21.0945 40.6903H32.9012C36.7841 40.6903 39.9473 37.4725 39.9473 33.5138V21.4884C39.9473 17.5337 36.788 14.3119 32.9012 14.3119H21.0945Z" fill="white"/>
<path d="M26.9978 35.3464C22.7512 35.3464 19.2954 31.8266 19.2954 27.5013C19.2954 23.1761 22.7512 19.6562 26.9978 19.6562C31.2444 19.6562 34.7003 23.1761 34.7003 27.5013C34.7003 31.8266 31.2444 35.3464 26.9978 35.3464ZM26.9978 22.0323C24.0363 22.0323 21.6283 24.4849 21.6283 27.5013C21.6283 30.5177 24.0363 32.9703 26.9978 32.9703C29.9594 32.9703 32.3674 30.5177 32.3674 27.5013C32.3674 24.4849 29.9594 22.0323 26.9978 22.0323Z" fill="white"/>
<path d="M37.547 18.7977C37.547 19.9253 36.6494 20.8395 35.5423 20.8395C34.4352 20.8395 33.5376 19.9253 33.5376 18.7977C33.5376 17.67 34.4352 16.7559 35.5423 16.7559C36.6494 16.7559 37.547 17.67 37.547 18.7977Z" fill="white"/>
</g>
<defs>
<clipPath id="clip0_527_2632">
<rect width="54" height="55" rx="27" fill="white"/>
</clipPath>
</defs>
</svg>
