<svg width="55" height="55" viewBox="0 0 55 55" fill="none" xmlns="http://www.w3.org/2000/svg">
<g clip-path="url(#clip0_1085_2702)">
<path d="M38.8144 0H16.1856C7.52267 0 0.5 7.15272 0.5 15.9761V39.0239C0.5 47.8473 7.52267 55 16.1856 55H38.8144C47.4773 55 54.5 47.8473 54.5 39.0239V15.9761C54.5 7.15272 47.4773 0 38.8144 0Z" fill="#295135"/>
<path d="M25.5 29.25C26.0368 29.9676 26.7217 30.5614 27.5082 30.9911C28.2947 31.4208 29.1644 31.6764 30.0583 31.7404C30.9522 31.8044 31.8495 31.6754 32.6892 31.3622C33.5289 31.049 34.2914 30.5588 34.925 29.925L38.675 26.175C39.8135 24.9962 40.4435 23.4174 40.4292 21.7787C40.415 20.14 39.7577 18.5724 38.5989 17.4136C37.4401 16.2548 35.8725 15.5975 34.2338 15.5832C32.595 15.569 31.0163 16.199 29.8375 17.3375L27.6875 19.475M30.5 26.75C29.9632 26.0323 29.2783 25.4385 28.4918 25.0088C27.7053 24.5791 26.8356 24.3236 25.9417 24.2595C25.0478 24.1955 24.1505 24.3245 23.3108 24.6377C22.4711 24.951 21.7086 25.4411 21.075 26.075L17.325 29.825C16.1865 31.0037 15.5566 32.5825 15.5708 34.2212C15.585 35.8599 16.2423 37.4275 17.4011 38.5863C18.5599 39.7451 20.1275 40.4024 21.7662 40.4167C23.405 40.4309 24.9837 39.8009 26.1625 38.6625L28.3 36.525" stroke="white" stroke-width="2" stroke-linecap="round" stroke-linejoin="round"/>
</g>
<defs>
<clipPath id="clip0_1085_2702">
<rect x="0.5" width="54" height="55" rx="27" fill="white"/>
</clipPath>
</defs>
</svg>
