<svg width="21" height="20" viewBox="0 0 21 20" fill="none" xmlns="http://www.w3.org/2000/svg">
<g clip-path="url(#clip0_315_957)">
<path d="M10.3335 0.00012207C4.81055 0.00012207 0.333466 4.47721 0.333466 10.0001C0.333466 15.523 4.81055 20.0001 10.3335 20.0001C15.8564 20.0001 20.3335 15.523 20.3335 10.0001C20.3335 4.47721 15.8564 0.00012207 10.3335 0.00012207ZM7.88555 14.1449H5.86055V7.62825H7.88555V14.1449ZM6.86055 6.82825C6.22096 6.82825 5.80742 6.37512 5.80742 5.8147C5.80742 5.24283 6.23347 4.80325 6.88659 4.80325C7.53972 4.80325 7.93972 5.24283 7.95222 5.8147C7.95222 6.37512 7.53972 6.82825 6.86055 6.82825ZM15.2814 14.1449H13.2564V10.5335C13.2564 9.69283 12.9626 9.122 12.2303 9.122C11.671 9.122 11.3387 9.50846 11.1918 9.88033C11.1376 10.0126 11.1241 10.2001 11.1241 10.3866V14.1439H9.09805V9.70637C9.09805 8.89283 9.07201 8.21262 9.04492 7.62721H10.8043L10.897 8.53241H10.9376C11.2043 8.10741 11.8574 7.48033 12.9501 7.48033C14.2824 7.48033 15.2814 8.37304 15.2814 10.2918V14.1449Z" fill="#295135"/>
</g>
<defs>
<clipPath id="clip0_315_957">
<rect width="20" height="20" fill="white" transform="translate(0.333374)"/>
</clipPath>
</defs>
</svg>
