<svg width="55" height="55" viewBox="0 0 55 55" fill="none" xmlns="http://www.w3.org/2000/svg">
<g clip-path="url(#clip0_1085_2702)">
<path d="M38.8144 0H16.1856C7.52267 0 0.5 7.15272 0.5 15.9761V39.0239C0.5 47.8473 7.52267 55 16.1856 55H38.8144C47.4773 55 54.5 47.8473 54.5 39.0239V15.9761C54.5 7.15272 47.4773 0 38.8144 0Z" fill="#295135"/>
<path d="M40.5 20.5C40.5 19.125 39.375 18 38 18H18C16.625 18 15.5 19.125 15.5 20.5M40.5 20.5V35.5C40.5 36.875 39.375 38 38 38H18C16.625 38 15.5 36.875 15.5 35.5V20.5M40.5 20.5L28 29.25L15.5 20.5" stroke="white" stroke-width="2" stroke-linecap="round" stroke-linejoin="round"/>
</g>
<defs>
<clipPath id="clip0_1085_2702">
<rect x="0.5" width="54" height="55" rx="27" fill="white"/>
</clipPath>
</defs>
</svg>
