<svg width="55" height="55" viewBox="0 0 55 55" fill="none" xmlns="http://www.w3.org/2000/svg">
<g clip-path="url(#clip0_527_2645)">
<path d="M0 27.5C0 12.312 12.312 0 27.5 0C42.688 0 55 12.312 55 27.5C55 42.688 42.688 55 27.5 55C12.312 55 0 42.688 0 27.5Z" fill="#295135"/>
<path d="M41.5538 20.708C41.2169 19.4132 40.2223 18.3923 38.9608 18.0451C36.6726 17.416 27.5002 17.416 27.5002 17.416C27.5002 17.416 18.3278 17.416 16.0395 18.0462C14.778 18.3923 13.7834 19.4121 13.4465 20.708C12.8335 23.057 12.8335 27.9577 12.8335 27.9577C12.8335 27.9577 12.8335 32.8584 13.4465 35.2074C13.7834 36.5022 14.778 37.5231 16.0395 37.8703C18.3278 38.4993 27.5002 38.4993 27.5002 38.4993C27.5002 38.4993 36.6726 38.4993 38.9608 37.8691C40.2223 37.5231 41.2169 36.5033 41.5538 35.2074C42.1668 32.8584 42.1668 27.9577 42.1668 27.9577C42.1668 27.9577 42.1668 23.057 41.5538 20.708Z" fill="white"/>
<path d="M24.75 33.0007V23.834L32.0833 28.4173L24.75 33.0007Z" fill="#295135"/>
</g>
<defs>
<clipPath id="clip0_527_2645">
<rect width="55" height="55" fill="white"/>
</clipPath>
</defs>
</svg>
