<svg width="28" height="28" viewBox="0 0 28 28" fill="none" xmlns="http://www.w3.org/2000/svg">
<path d="M14 2C17.1826 2 20.2349 3.26421 22.4854 5.51465C24.7358 7.76508 26 10.8174 26 14C26 16.3734 25.2961 18.6936 23.9775 20.667C22.659 22.6403 20.7845 24.1787 18.5918 25.0869C16.3993 25.995 13.9867 26.2325 11.6592 25.7695C9.33141 25.3065 7.19288 24.1636 5.51465 22.4854C3.83642 20.8071 2.69349 18.6686 2.23047 16.3408C1.76755 14.0133 2.00503 11.6007 2.91309 9.4082C3.82132 7.21554 5.35969 5.34103 7.33301 4.02246C9.3064 2.70388 11.6266 2 14 2ZM14 2.75C11.0171 2.75265 8.15706 3.93864 6.04785 6.04785C3.93864 8.15706 2.75265 11.0171 2.75 14C2.75 16.2249 3.40949 18.4 4.64551 20.25C5.88158 22.0999 7.63886 23.542 9.69434 24.3936C11.7498 25.245 14.0122 25.4681 16.1943 25.0342C18.3766 24.6001 20.3817 23.5284 21.9551 21.9551C23.5284 20.3817 24.6001 18.3766 25.0342 16.1943C25.4681 14.0122 25.245 11.7499 24.3936 9.69434C23.542 7.63885 22.0999 5.88159 20.25 4.64551C18.4 3.40949 16.2249 2.75 14 2.75ZM14.04 17.5098C14.4708 17.5098 14.8203 17.8593 14.8203 18.29C14.8203 18.7208 14.4708 19.0703 14.04 19.0703C13.6093 19.0703 13.2598 18.7208 13.2598 18.29C13.2598 17.8593 13.6093 17.5098 14.04 17.5098ZM14.0596 8C14.3357 8 14.5596 8.22386 14.5596 8.5V16.0098C14.5596 16.2859 14.3357 16.5098 14.0596 16.5098C13.7836 16.5095 13.5596 16.2858 13.5596 16.0098V8.5C13.5596 8.224 13.7836 8.00022 14.0596 8Z" fill="#CB801B"/>
</svg>
