<svg width="22" height="23" viewBox="0 0 22 23" fill="none" xmlns="http://www.w3.org/2000/svg">
<path d="M10.9987 1.69727C13.4993 1.69727 15.8975 2.69079 17.6657 4.45898C19.4338 6.22718 20.4274 8.62537 20.4274 11.126C20.4274 12.9907 19.8745 14.8138 18.8385 16.3643C17.8025 17.9147 16.3298 19.1233 14.6071 19.8369C12.8842 20.5505 10.9878 20.7369 9.15882 20.373C7.33004 20.0092 5.65016 19.1115 4.33167 17.793C3.01317 16.4745 2.11545 14.7946 1.75159 12.9658C1.38779 11.1369 1.5741 9.24042 2.28772 7.51758C3.00136 5.79481 4.20991 4.32212 5.76038 3.28613C7.31088 2.25015 9.1339 1.69727 10.9987 1.69727ZM10.9987 2.28711C8.65498 2.28919 6.40785 3.22069 4.75061 4.87793C3.09338 6.53517 2.16187 8.78229 2.15979 11.126C2.15979 12.8742 2.67778 14.5835 3.64905 16.0371C4.62026 17.4905 6.00087 18.623 7.61585 19.292C9.23102 19.961 11.0086 20.137 12.7233 19.7959C14.4379 19.4548 16.0125 18.6122 17.2487 17.376C18.4848 16.1398 19.3275 14.5652 19.6686 12.8506C20.0096 11.1359 19.8337 9.35833 19.1647 7.74316C18.4957 6.12819 17.3632 4.74758 15.9098 3.77637C14.4562 2.8051 12.7469 2.28711 10.9987 2.28711ZM15.7174 7.95996C15.7953 7.95996 15.8702 7.99093 15.9254 8.0459C15.9806 8.10112 16.0123 8.17679 16.0123 8.25488C16.0122 8.33286 15.9806 8.40774 15.9254 8.46289L9.93909 14.4502L6.46546 10.9775C6.43818 10.9503 6.41678 10.9175 6.40198 10.8818C6.38718 10.8461 6.37952 10.8072 6.37952 10.7686C6.37956 10.73 6.38724 10.6919 6.40198 10.6562C6.41676 10.6206 6.43817 10.5879 6.46546 10.5605C6.49275 10.5333 6.52552 10.5119 6.56116 10.4971C6.59689 10.4823 6.63577 10.4746 6.67444 10.4746C6.71296 10.4747 6.75116 10.4823 6.78675 10.4971C6.82241 10.5119 6.85515 10.5332 6.88245 10.5605L9.93909 13.6172L15.5094 8.0459C15.5646 7.99087 15.6395 7.96 15.7174 7.95996Z" fill="#CB801B"/>
<path d="M10.9987 1.69727V1.50084V1.69727ZM17.6657 4.45898L17.8045 4.32009L17.6657 4.45898ZM20.4274 11.126H20.6238H20.4274ZM18.8385 16.3643L19.0018 16.4734L19.0018 16.4734L18.8385 16.3643ZM14.6071 19.8369L14.6822 20.0184L14.6822 20.0184L14.6071 19.8369ZM9.15882 20.373L9.12048 20.5657L9.12049 20.5657L9.15882 20.373ZM4.33167 17.793L4.19277 17.9319L4.33167 17.793ZM1.75159 12.9658L1.55894 13.0041L1.55894 13.0042L1.75159 12.9658ZM2.28772 7.51758L2.10625 7.4424L2.10625 7.44241L2.28772 7.51758ZM5.76038 3.28613L5.65125 3.12281L5.65125 3.12281L5.76038 3.28613ZM10.9987 2.28711V2.09068L10.9985 2.09068L10.9987 2.28711ZM4.75061 4.87793L4.61172 4.73903L4.75061 4.87793ZM2.15979 11.126L1.96336 11.1258V11.126H2.15979ZM3.64905 16.0371L3.48573 16.1462L3.48573 16.1462L3.64905 16.0371ZM7.61585 19.292L7.54067 19.4735L7.54068 19.4735L7.61585 19.292ZM12.7233 19.7959L12.7616 19.9886H12.7616L12.7233 19.7959ZM17.2487 17.376L17.3876 17.5149L17.2487 17.376ZM19.6686 12.8506L19.8612 12.8889L19.8612 12.8889L19.6686 12.8506ZM19.1647 7.74316L19.3462 7.66799L19.3461 7.66799L19.1647 7.74316ZM15.9098 3.77637L16.0189 3.61305L16.0189 3.61304L15.9098 3.77637ZM15.7174 7.95996V7.76353H15.7173L15.7174 7.95996ZM15.9254 8.0459L16.0643 7.907L16.064 7.90673L15.9254 8.0459ZM16.0123 8.25488L16.2088 8.2551V8.25488H16.0123ZM15.9254 8.46289L15.7865 8.32399L15.7865 8.32401L15.9254 8.46289ZM9.93909 14.4502L9.80021 14.5891L9.93912 14.728L10.078 14.5891L9.93909 14.4502ZM6.46546 10.9775L6.32656 11.1164L6.32658 11.1165L6.46546 10.9775ZM6.40198 10.8818L6.2205 10.957L6.22058 10.9572L6.40198 10.8818ZM6.37952 10.7686L6.18309 10.7684V10.7686H6.37952ZM6.40198 10.6562L6.2205 10.5811L6.22049 10.5811L6.40198 10.6562ZM6.46546 10.5605L6.32656 10.4217L6.32649 10.4217L6.46546 10.5605ZM6.56116 10.4971L6.48599 10.3156L6.48585 10.3157L6.56116 10.4971ZM6.67444 10.4746L6.67474 10.2782H6.67444V10.4746ZM6.78675 10.4971L6.86202 10.3156L6.86192 10.3156L6.78675 10.4971ZM6.88245 10.5605L6.74355 10.6994L6.88245 10.5605ZM9.93909 13.6172L9.80019 13.7561L9.9391 13.895L10.078 13.7561L9.93909 13.6172ZM15.5094 8.0459L15.3707 7.90683L15.3705 7.90701L15.5094 8.0459ZM10.9987 1.69727L10.9987 1.89369C13.4472 1.8937 15.7954 2.86651 17.5268 4.59788L17.6657 4.45898L17.8045 4.32009C15.9995 2.51506 13.5514 1.50084 10.9987 1.50084V1.69727ZM17.6657 4.45898L17.5268 4.59788C19.2581 6.32925 20.2309 8.67747 20.2309 11.126H20.4274H20.6238C20.6238 8.57326 19.6096 6.12512 17.8045 4.32009L17.6657 4.45898ZM20.4274 11.126H20.2309C20.2309 12.9519 19.6896 14.7369 18.6752 16.2551L18.8385 16.3643L19.0018 16.4734C20.0594 14.8906 20.6238 13.0296 20.6238 11.126H20.4274ZM18.8385 16.3643L18.6752 16.2551C17.6608 17.7733 16.2188 18.9567 14.5319 19.6554L14.6071 19.8369L14.6822 20.0184C16.4409 19.2899 17.9443 18.0562 19.0018 16.4734L18.8385 16.3643ZM14.6071 19.8369L14.5319 19.6554C12.845 20.3542 10.988 20.5366 9.19714 20.1804L9.15882 20.373L9.12049 20.5657C10.9875 20.9371 12.9235 20.7469 14.6822 20.0184L14.6071 19.8369ZM9.15882 20.373L9.19715 20.1804C7.40645 19.8241 5.76158 18.9451 4.47056 17.6541L4.33167 17.793L4.19277 17.9319C5.53875 19.2778 7.25362 20.1943 9.12048 20.5657L9.15882 20.373ZM4.33167 17.793L4.47056 17.6541C3.17955 16.3631 2.30053 14.7182 1.94424 12.9275L1.75159 12.9658L1.55894 13.0042C1.93038 14.871 2.8468 16.5859 4.19277 17.9319L4.33167 17.793ZM1.75159 12.9658L1.94424 12.9275C1.58801 11.1366 1.77045 9.27967 2.4692 7.59275L2.28772 7.51758L2.10625 7.44241C1.37774 9.20118 1.18756 11.1371 1.55894 13.0041L1.75159 12.9658ZM2.28772 7.51758L2.4692 7.59275C3.16797 5.90587 4.35135 4.46386 5.86951 3.44946L5.76038 3.28613L5.65125 3.12281C4.06848 4.18038 2.83475 5.68375 2.10625 7.4424L2.28772 7.51758ZM5.76038 3.28613L5.86951 3.44946C7.3877 2.43506 9.17274 1.89369 10.9987 1.89369V1.69727V1.50084C9.09506 1.50084 7.23406 2.06524 5.65125 3.12281L5.76038 3.28613ZM10.9987 2.28711L10.9985 2.09068C8.60279 2.09281 6.30577 3.04499 4.61172 4.73903L4.75061 4.87793L4.88951 5.01683C6.50993 3.3964 8.70716 2.48557 10.9988 2.48354L10.9987 2.28711ZM4.75061 4.87793L4.61172 4.73903C2.91767 6.43308 1.96549 8.73011 1.96336 11.1258L2.15979 11.126L2.35622 11.1262C2.35826 8.83448 3.26909 6.63725 4.88951 5.01683L4.75061 4.87793ZM2.15979 11.126H1.96336C1.96336 12.913 2.49285 14.6603 3.48573 16.1462L3.64905 16.0371L3.81237 15.928C2.86271 14.5067 2.35622 12.8354 2.35622 11.126H2.15979ZM3.64905 16.0371L3.48573 16.1462C4.47854 17.632 5.88984 18.7896 7.54067 19.4735L7.61585 19.292L7.69102 19.1105C6.1119 18.4564 4.76198 17.3491 3.81237 15.928L3.64905 16.0371ZM7.61585 19.292L7.54068 19.4735C9.19167 20.1573 11.0088 20.3372 12.7616 19.9886L12.7233 19.7959L12.6849 19.6032C11.0085 19.9367 9.27036 19.7647 7.69102 19.1105L7.61585 19.292ZM12.7233 19.7959L12.7616 19.9886C14.5144 19.6399 16.1239 18.7785 17.3876 17.5149L17.2487 17.376L17.1098 17.2371C15.901 18.4458 14.3614 19.2698 12.6849 19.6032L12.7233 19.7959ZM17.2487 17.376L17.3876 17.5149C18.6512 16.2513 19.5126 14.6417 19.8612 12.8889L19.6686 12.8506L19.4759 12.8123C19.1424 14.4887 18.3185 16.0283 17.1098 17.2371L17.2487 17.376ZM19.6686 12.8506L19.8612 12.8889C20.2099 11.1361 20.03 9.31899 19.3462 7.66799L19.1647 7.74316L18.9832 7.81833C19.6374 9.39767 19.8094 11.1358 19.4759 12.8123L19.6686 12.8506ZM19.1647 7.74316L19.3461 7.66799C18.6623 6.01716 17.5047 4.60586 16.0189 3.61305L15.9098 3.77637L15.8007 3.93969C17.2218 4.8893 18.329 6.23922 18.9832 7.81834L19.1647 7.74316ZM15.9098 3.77637L16.0189 3.61304C14.533 2.62017 12.7857 2.09068 10.9987 2.09068V2.28711L10.9987 2.48354C12.7081 2.48354 14.3794 2.99003 15.8007 3.93969L15.9098 3.77637ZM15.7174 7.95996V8.15639C15.7433 8.15639 15.7684 8.16675 15.7868 8.18506L15.9254 8.0459L16.064 7.90673C15.9721 7.81511 15.8473 7.76353 15.7174 7.76353V7.95996ZM15.9254 8.0459L15.7865 8.18479C15.8053 8.2036 15.8159 8.22948 15.8159 8.25488H16.0123H16.2088C16.2088 8.1241 16.156 7.99864 16.0643 7.907L15.9254 8.0459ZM16.0123 8.25488L15.8159 8.25467C15.8159 8.27957 15.8056 8.30488 15.7865 8.32399L15.9254 8.46289L16.0643 8.60179C16.1555 8.51061 16.2086 8.38615 16.2088 8.2551L16.0123 8.25488ZM15.9254 8.46289L15.7865 8.32401L9.80018 14.3113L9.93909 14.4502L10.078 14.5891L16.0643 8.60178L15.9254 8.46289ZM9.93909 14.4502L10.078 14.3113L6.60433 10.8386L6.46546 10.9775L6.32658 11.1165L9.80021 14.5891L9.93909 14.4502ZM6.46546 10.9775L6.60435 10.8386C6.59636 10.8306 6.58891 10.8198 6.58338 10.8065L6.40198 10.8818L6.22058 10.9572C6.24464 11.0151 6.28001 11.0699 6.32656 11.1164L6.46546 10.9775ZM6.40198 10.8818L6.58346 10.8067C6.57862 10.795 6.57595 10.7817 6.57595 10.7686H6.37952H6.18309C6.18309 10.8328 6.19574 10.8972 6.2205 10.957L6.40198 10.8818ZM6.37952 10.7686L6.57595 10.7687C6.57596 10.7562 6.57846 10.7435 6.58347 10.7314L6.40198 10.6562L6.22049 10.5811C6.19601 10.6403 6.18315 10.7038 6.18309 10.7684L6.37952 10.7686ZM6.40198 10.6562L6.58346 10.7314C6.58886 10.7184 6.59621 10.7076 6.60443 10.6994L6.46546 10.5605L6.32649 10.4217C6.28012 10.4681 6.24466 10.5228 6.2205 10.5811L6.40198 10.6562ZM6.46546 10.5605L6.60435 10.6994C6.61238 10.6914 6.62319 10.684 6.63647 10.6785L6.56116 10.4971L6.48585 10.3157C6.42785 10.3397 6.37311 10.3751 6.32656 10.4217L6.46546 10.5605ZM6.56116 10.4971L6.63633 10.6785C6.648 10.6737 6.66132 10.671 6.67444 10.671V10.4746V10.2782C6.61022 10.2782 6.54577 10.2908 6.48599 10.3156L6.56116 10.4971ZM6.67444 10.4746L6.67414 10.671C6.68685 10.6711 6.69962 10.6736 6.71158 10.6785L6.78675 10.4971L6.86192 10.3156C6.80269 10.2911 6.73906 10.2783 6.67474 10.2782L6.67444 10.4746ZM6.78675 10.4971L6.71147 10.6785C6.72472 10.684 6.73549 10.6914 6.74355 10.6994L6.88245 10.5605L7.02134 10.4217C6.9748 10.3751 6.92009 10.3397 6.86202 10.3156L6.78675 10.4971ZM6.88245 10.5605L6.74355 10.6994L9.80019 13.7561L9.93909 13.6172L10.078 13.4783L7.02134 10.4217L6.88245 10.5605ZM9.93909 13.6172L10.078 13.7561L15.6483 8.18478L15.5094 8.0459L15.3705 7.90701L9.80018 13.4783L9.93909 13.6172ZM15.5094 8.0459L15.6481 8.18496C15.6663 8.1668 15.6913 8.1564 15.7175 8.15639L15.7174 7.95996L15.7173 7.76353C15.5876 7.76359 15.4628 7.81494 15.3707 7.90683L15.5094 8.0459Z" fill="#CB801B"/>
</svg>
