<svg width="47" height="48" viewBox="0 0 47 48" fill="none" xmlns="http://www.w3.org/2000/svg">
<path fill-rule="evenodd" clip-rule="evenodd" d="M0.0117188 5.66602C0.0117188 2.90459 2.2503 0.666016 5.01172 0.666016H16.6784C19.4398 0.666016 21.6784 2.90459 21.6784 5.66602V17.3327C21.6784 20.0941 19.4398 22.3327 16.6784 22.3327H5.01172C2.25029 22.3327 0.0117188 20.0941 0.0117188 17.3327V5.66602ZM5.01172 2.33268H16.6784C18.5193 2.33268 20.0117 3.82507 20.0117 5.66602V17.3327C20.0117 19.1736 18.5193 20.666 16.6784 20.666H5.01172C3.17077 20.666 1.67839 19.1736 1.67839 17.3327V5.66602C1.67839 3.82507 3.17077 2.33268 5.01172 2.33268Z" fill="#295135"/>
<path fill-rule="evenodd" clip-rule="evenodd" d="M25.0117 5.66602C25.0117 2.90459 27.2503 0.666016 30.0117 0.666016H41.6784C44.4398 0.666016 46.6784 2.90459 46.6784 5.66602V17.3327C46.6784 20.0941 44.4398 22.3327 41.6784 22.3327H30.0117C27.2503 22.3327 25.0117 20.0941 25.0117 17.3327V5.66602ZM30.0117 2.33268H41.6784C43.5193 2.33268 45.0117 3.82507 45.0117 5.66602V17.3327C45.0117 19.1736 43.5193 20.666 41.6784 20.666H30.0117C28.1708 20.666 26.6784 19.1736 26.6784 17.3327V5.66602C26.6784 3.82507 28.1708 2.33268 30.0117 2.33268Z" fill="#295135"/>
<path fill-rule="evenodd" clip-rule="evenodd" d="M30.0117 25.666C27.2503 25.666 25.0117 27.9046 25.0117 30.666V42.3327C25.0117 45.0941 27.2503 47.3327 30.0117 47.3327H41.6784C44.4398 47.3327 46.6784 45.0941 46.6784 42.3327V30.666C46.6784 27.9046 44.4398 25.666 41.6784 25.666H30.0117ZM41.6784 27.3327H30.0117C28.1708 27.3327 26.6784 28.8251 26.6784 30.666V42.3327C26.6784 44.1736 28.1708 45.666 30.0117 45.666H41.6784C43.5193 45.666 45.0117 44.1736 45.0117 42.3327V30.666C45.0117 28.8251 43.5193 27.3327 41.6784 27.3327Z" fill="#295135"/>
<path fill-rule="evenodd" clip-rule="evenodd" d="M0.0117188 30.666C0.0117188 27.9046 2.2503 25.666 5.01172 25.666H16.6784C19.4398 25.666 21.6784 27.9046 21.6784 30.666V42.3327C21.6784 45.0941 19.4398 47.3327 16.6784 47.3327H5.01172C2.25029 47.3327 0.0117188 45.0941 0.0117188 42.3327V30.666ZM5.01172 27.3327H16.6784C18.5193 27.3327 20.0117 28.8251 20.0117 30.666V42.3327C20.0117 44.1736 18.5193 45.666 16.6784 45.666H5.01172C3.17077 45.666 1.67839 44.1736 1.67839 42.3327V30.666C1.67839 28.8251 3.17077 27.3327 5.01172 27.3327Z" fill="#295135"/>
</svg>
