<svg width="24" height="25" viewBox="0 0 24 25" fill="none" xmlns="http://www.w3.org/2000/svg">
<path d="M4.7998 19.2008C4.36647 19.2008 4.00814 19.0591 3.7248 18.7758C3.44147 18.4924 3.2998 18.1341 3.2998 17.7008V7.30078C3.2998 6.86745 3.44147 6.50911 3.7248 6.22578C4.00814 5.94245 4.36647 5.80078 4.7998 5.80078H19.1998C19.6331 5.80078 19.9915 5.94245 20.2748 6.22578C20.5581 6.50911 20.6998 6.86745 20.6998 7.30078V17.7008C20.6998 18.1341 20.5581 18.4924 20.2748 18.7758C19.9915 19.0591 19.6331 19.2008 19.1998 19.2008H4.7998ZM11.9998 12.3508L3.9998 7.05078V17.7008C3.9998 17.9341 4.0748 18.1258 4.2248 18.2758C4.3748 18.4258 4.56647 18.5008 4.7998 18.5008H19.1998C19.4331 18.5008 19.6248 18.4258 19.7748 18.2758C19.9248 18.1258 19.9998 17.9341 19.9998 17.7008V7.05078L11.9998 12.3508ZM11.9998 11.5008L19.5998 6.50078H4.3998L11.9998 11.5008ZM3.9998 7.05078V6.50078V17.7008C3.9998 17.9341 4.0748 18.1258 4.2248 18.2758C4.3748 18.4258 4.56647 18.5008 4.7998 18.5008H3.9998V7.05078Z" fill="#295135"/>
</svg>
