<svg width="38" height="52" viewBox="0 0 38 52" fill="none" xmlns="http://www.w3.org/2000/svg">
<path d="M24.8828 0.132812C25.98 0.132903 27.0256 0.58491 27.7891 1.37793L36.6748 10.6133L36.9414 10.9189C37.5246 11.6579 37.8447 12.5808 37.8447 13.5332V47.4082C37.8447 49.6847 36.0428 51.5726 33.7695 51.5732H4.22168C1.94925 51.5732 0.144534 49.6864 0.144531 47.4082V4.29785C0.144569 2.02106 1.94795 0.132812 4.22168 0.132812H24.8828ZM4.22168 1.86816C2.9498 1.86816 1.87992 2.93346 1.87988 4.29785V47.4082C1.87989 48.7733 2.95042 49.8398 4.22168 49.8398H33.7695C35.041 49.8392 36.1113 48.7722 36.1113 47.4082V13.5332C36.1113 13.3681 36.093 13.2049 36.0615 13.0459H29.4326C27.1589 13.0459 25.3555 11.1577 25.3555 8.88086V1.91797C25.2009 1.88498 25.0426 1.86819 24.8828 1.86816H4.22168ZM17.3945 17.4072C19.1269 17.1548 20.4667 17.6505 20.958 19.4619C21.6861 22.1502 20.4615 24.6479 19.8301 27.1982L22.0459 29.6768C22.461 29.9159 22.7281 30.3267 23.082 30.6348C23.2871 30.8131 24.2635 31.6557 24.4053 31.7051C24.79 31.8368 25.8643 31.5108 26.3398 31.4561C27.6214 31.307 29.7497 31.2979 30.8438 32.0693C32.1951 33.0212 31.8864 35.4751 30.5449 36.2832C29.0602 37.1773 27.8623 36.7341 26.5088 35.916C25.5904 35.3605 24.7719 34.6439 23.8623 34.0742C21.4257 34.5669 18.9752 35.1153 16.6807 36.1006C15.6498 38.3864 12.3115 43.3681 9.60156 43.2783C8.42373 43.2388 7.01695 42.6059 6.61133 41.3887C5.75698 38.823 9.44335 37.2125 11.1807 36.3164C12.475 35.6484 13.821 35.0659 15.1104 34.3857C16.0722 32.2216 16.7116 29.9206 17.4199 27.6592C17.0421 26.8786 16.4447 26.2127 16.0234 25.4453C15.6733 24.8077 15.2507 23.8792 15.084 23.1729C14.6204 21.2154 14.9602 17.7643 17.3955 17.4092L17.3945 17.4072ZM9.70898 39.5576C9.2325 39.8719 8.81607 40.1639 8.56055 40.7031C9.49273 41.4774 10.4503 40.8652 11.2188 40.1982C11.4318 40.0128 13.4341 37.8545 13.2852 37.7178H13.2842L9.70898 39.5576ZM28.8906 33.5684C28.3027 33.4883 27.5754 33.6271 26.9707 33.5684C27.4442 34.0164 28.2435 34.5869 28.8906 34.5879C29.3274 34.5879 29.6213 34.5508 29.5996 34.0371C29.5878 33.7514 29.1275 33.6009 28.8896 33.5684H28.8906ZM17.8135 33.3662L21.752 32.3545L19.2422 29.7236L18.9951 29.623L17.8135 33.3662ZM18.9727 20.084C18.7279 19.1861 17.4787 19.2936 17.1709 20.2129C16.649 21.775 17.3063 23.7563 18.3037 24.9697H18.3047C18.6529 23.3741 19.4265 21.7536 18.9727 20.084ZM27.0908 8.88086C27.0908 10.2453 28.1607 11.3125 29.4326 11.3125H34.9414L27.0908 3.15234V8.88086Z" fill="#295135"/>
</svg>
