<svg width="45" height="48" viewBox="0 0 45 48" fill="none" xmlns="http://www.w3.org/2000/svg">
<path d="M29.2256 0.25446C29.497 0.245763 29.7639 0.339833 29.971 0.519759C30.2074 0.725398 30.3436 1.02349 30.3437 1.33682V46.2489C30.3437 46.5625 30.2076 46.8618 29.971 47.0676C29.7343 47.2732 29.4189 47.3652 29.1084 47.3215L1.19824 43.3908C0.66388 43.3155 0.265887 42.8579 0.265625 42.3182V5.26748C0.266211 4.72813 0.664077 4.27022 1.19824 4.19489L29.1084 0.264225L29.2256 0.25446ZM2.43359 6.20986V41.3759L28.1774 45.0022V2.58193L2.43359 6.20986ZM43.3499 3.9654C43.8439 4.06613 44.2158 4.50282 44.2158 5.02659V42.5624C44.215 43.16 43.7297 43.6447 43.1318 43.6447H32.6745V41.4784H42.0495V6.11058H32.6745V3.94261H43.1318L43.3499 3.9654ZM10.3079 24.6425C10.5968 26.278 10.8152 27.7987 11.0257 29.4472H11.1592C11.3622 27.7988 11.7138 26.2361 12.0918 24.6425L13.9294 16.6216H17.0202L18.8138 24.6425C19.1854 26.2781 19.6021 27.7987 19.818 29.4472H19.9564C20.2227 27.7987 20.3722 26.278 20.6546 24.6425L22.4108 15.2463H25.6172L22.2285 32.341H17.9186L16.2194 24.8638C15.9531 23.5964 15.6932 21.9225 15.4333 19.8004H15.2933C15.0463 21.7862 14.7989 23.4203 14.5186 24.8638L12.8779 32.341H8.59407L5.10775 15.2463H8.52734L10.3079 24.6425Z" fill="#295135"/>
</svg>
