<svg width="25" height="24" viewBox="0 0 25 24" fill="none" xmlns="http://www.w3.org/2000/svg">
<path fill-rule="evenodd" clip-rule="evenodd" d="M13.6985 22.6673H4.32421C3.80501 22.6231 3.3238 22.3774 2.98357 21.9827C2.64334 21.5881 2.47115 21.0759 2.50396 20.5558V3.44548C2.47115 2.92544 2.64334 2.41323 2.98357 2.01856C3.3238 1.6239 3.80501 1.37816 4.32421 1.33398H13.6985C14.2177 1.37816 14.6989 1.6239 15.0392 2.01856C15.3794 2.41323 15.5516 2.92544 15.5188 3.44548V10.3715C15.5055 10.4525 15.4639 10.5261 15.4014 10.5792C15.3388 10.6323 15.2595 10.6615 15.1775 10.6615C15.0955 10.6615 15.016 10.6323 14.9535 10.5792C14.891 10.5261 14.8495 10.4525 14.8362 10.3715V3.44548C14.8669 3.10238 14.7622 2.76086 14.5446 2.49387C14.3269 2.22689 14.0135 2.05559 13.6712 2.01658H4.29699C3.95473 2.05559 3.6412 2.22689 3.42353 2.49387C3.20585 2.76086 3.10128 3.10238 3.132 3.44548V20.5467C3.10128 20.8898 3.20585 21.2313 3.42353 21.4983C3.6412 21.7653 3.95473 21.9366 4.29699 21.9756H13.6712C13.9525 21.9534 14.2178 21.8357 14.423 21.642C14.6283 21.4483 14.7612 21.1903 14.7998 20.9108C14.8093 20.8672 14.8274 20.8258 14.853 20.7892C14.8785 20.7526 14.9109 20.7213 14.9485 20.6972C14.9861 20.6731 15.0281 20.6567 15.0721 20.6488C15.116 20.641 15.1612 20.6418 15.2048 20.6514C15.2484 20.661 15.2897 20.679 15.3264 20.7045C15.363 20.7301 15.3943 20.7626 15.4184 20.8002C15.4424 20.8378 15.4589 20.8798 15.4668 20.9237C15.4747 20.9677 15.4737 21.0128 15.4641 21.0564C15.3967 21.4856 15.1852 21.8791 14.8642 22.1719C14.5432 22.4647 14.1321 22.6395 13.6985 22.6673ZM18.4494 21.3295C18.3859 21.3274 18.3243 21.3079 18.2712 21.2731C18.218 21.2383 18.1755 21.1896 18.1483 21.1323C18.121 21.0749 18.1101 21.0112 18.1166 20.9481C18.1232 20.8849 18.1469 20.8248 18.1854 20.7743L22.1297 15.7777H13.2526C13.1621 15.7777 13.0753 15.7417 13.0113 15.6777C12.9473 15.6137 12.9113 15.5269 12.9113 15.4364C12.9113 15.3458 12.9473 15.259 13.0113 15.195C13.0753 15.131 13.1621 15.0951 13.2526 15.0951H22.0301L18.2127 11.1361C18.15 11.0709 18.1157 10.9834 18.1174 10.893C18.1191 10.8025 18.1567 10.7164 18.2218 10.6537C18.287 10.5909 18.3745 10.5566 18.4649 10.5583C18.5554 10.56 18.6415 10.5976 18.7042 10.6628L23.0819 15.2134C23.1363 15.275 23.1663 15.3543 23.1663 15.4364C23.1663 15.5185 23.1363 15.5978 23.0819 15.6594L18.7042 21.2111C18.6728 21.2481 18.6337 21.2777 18.5897 21.2982C18.5457 21.3186 18.4979 21.3292 18.4494 21.3295Z" fill="#295135"/>
</svg>
