<svg width="12" height="18" viewBox="0 0 12 18" fill="none" xmlns="http://www.w3.org/2000/svg">
<path fill-rule="evenodd" clip-rule="evenodd" d="M6.18022 4.56833V7.75671L6.39592 7.90658L6.7844 8.17639L7.38974 7.75595V4.56756L6.78597 4.14807L6.18022 4.56833ZM6.96513 2.2517V3.84334L7.57109 4.26421L8.35721 3.71822L9.14138 4.26286L9.92554 3.71822L10.8907 4.38856V7.93572L10.1049 8.48148V11.2454L9.32236 11.7889V13.6137L8.35489 14.284L7.57088 13.7382L6.96513 14.1589V15.7521L5.99998 16.4187L5.03484 15.7521V14.1589L4.42907 13.7381L3.64439 14.284L2.67924 13.6137V11.7906L1.89428 11.2454V8.48091L1.10931 7.93572V4.38856L2.07446 3.71822L2.85978 4.26366L3.6451 3.71822L4.42912 4.26407L5.03484 3.84337V2.2517L5.99998 1.58136L6.96513 2.2517ZM5.99998 13.7388L5.39522 14.159V15.5723L5.99998 15.9925L6.60475 15.5723V14.159L5.99998 13.7388ZM4.60794 4.56756L5.21401 4.14808L5.81979 4.56835V7.7566L5.21476 8.17635L4.60794 7.75488V4.56756ZM6.60475 2.4307L5.99998 2.01052L5.39522 2.4307V3.84338L6 4.26342L6.60475 3.8434V2.4307ZM8.53502 11.0648L9.14103 11.4857L9.74453 11.0664V8.48034L9.14116 8.06127L8.53502 8.48125V11.0648ZM10.5303 7.75671L9.92575 8.17674L9.32236 7.75766V4.56647L9.92554 4.14739L10.5303 4.56756V7.75671ZM8.95965 4.56756V7.75594L8.35482 8.17602L7.75013 7.75604V4.56756L8.35489 4.14739L8.95965 4.56756ZM7.57088 8.06022L8.17462 8.48055V11.0664L7.56997 11.4865L7.01218 11.0991L6.96513 11.0664V8.48093L7.57088 8.06022ZM8.14312 11.5176L8.35482 11.3706L8.95787 11.7894L8.95965 11.7907V13.4347L8.35489 13.8548L7.75013 13.4347V11.7906L8.14312 11.5176ZM6.78536 11.3709L7.34101 11.7568L7.38974 11.7907V13.4347L6.78498 13.8548L6.18022 13.4347V11.7907L6.78536 11.3709ZM6.60473 8.48086V11.0664L6.22446 11.3306L6 11.4865L5.67507 11.2608L5.39522 11.0664L5.3945 8.63812V8.4814L6 8.06085L6.60473 8.48086ZM2.0717 8.17795L1.4697 7.75671V4.56756L2.07446 4.14739L2.67922 4.56756V7.756L2.0717 8.17795ZM3.64439 8.17603L3.04033 7.75649V4.56756L3.6451 4.14739L4.24986 4.56756V7.75551L3.64439 8.17603ZM3.28744 11.6185L3.64439 11.3706L3.99813 11.6162L4.24915 11.7907V13.4347L3.64439 13.8548L3.03962 13.4347V11.7907L3.28744 11.6185ZM2.25466 8.4809V11.0664L2.85936 11.4865L3.21639 11.2386L3.46419 11.0664V8.48041L2.85978 8.06062L2.25466 8.4809ZM4.42912 8.06021L3.82459 8.48109V11.0664L4.42935 11.4866L5.03411 11.0664V8.48041L4.42912 8.06021ZM5.21357 11.3711L4.60799 11.7917V13.4347L5.2127 13.8548L5.81746 13.4347V11.7907L5.21357 11.3711Z" fill="#295135"/>
</svg>
