<svg width="40" height="40" viewBox="0 0 40 40" fill="none" xmlns="http://www.w3.org/2000/svg">
<rect x="4.25" y="4.25" width="31.5" height="31.5" rx="15.75" stroke="#94989A" stroke-width="0.5"/>
<path d="M18.3258 24.6663C18.2622 24.6675 18.1997 24.6497 18.1463 24.6152C18.0928 24.5807 18.0509 24.531 18.0259 24.4725C18.0008 24.4141 17.9938 24.3495 18.0056 24.287C18.0174 24.2245 18.0476 24.1669 18.0923 24.1217L22.0348 19.9372L18.0923 15.8478C18.0483 15.7837 18.0285 15.706 18.0364 15.6286C18.0443 15.5512 18.0793 15.4792 18.1353 15.4252C18.1914 15.3713 18.2647 15.339 18.3423 15.334C18.4199 15.3291 18.4968 15.3518 18.5592 15.3982L22.7178 19.721C22.7749 19.7819 22.8067 19.8623 22.8067 19.9458C22.8067 20.0293 22.7749 20.1097 22.7178 20.1706L18.5592 24.5799C18.5281 24.6092 18.4913 24.6319 18.4513 24.6468C18.4112 24.6616 18.3685 24.6683 18.3258 24.6663Z" fill="#94989A"/>
</svg>
