<svg width="40" height="40" viewBox="0 0 40 40" fill="none" xmlns="http://www.w3.org/2000/svg">
<rect x="4.25" y="4.25" width="31.5" height="31.5" rx="15.75" stroke="#94989A" stroke-width="0.5"/>
<path fill-rule="evenodd" clip-rule="evenodd" d="M16.1463 24.6152C16.1997 24.6497 16.2622 24.6675 16.3258 24.6663C16.3685 24.6683 16.4112 24.6616 16.4513 24.6468C16.4913 24.6319 16.528 24.6092 16.5592 24.5799L20.7178 20.1706C20.7749 20.1097 20.8067 20.0293 20.8067 19.9458C20.8067 19.8623 20.7749 19.7819 20.7178 19.721L16.5592 15.3982C16.4968 15.3518 16.4199 15.3291 16.3423 15.334C16.2647 15.339 16.1914 15.3713 16.1353 15.4252C16.0793 15.4792 16.0443 15.5512 16.0364 15.6286C16.0285 15.706 16.0483 15.7837 16.0923 15.8478L20.0348 19.9372L16.0923 24.1217C16.0476 24.1669 16.0174 24.2245 16.0056 24.287C15.9937 24.3495 16.0008 24.4141 16.0259 24.4725C16.0509 24.531 16.0928 24.5807 16.1463 24.6152ZM19.6045 24.6152C19.6579 24.6497 19.7204 24.6675 19.784 24.6663C19.8268 24.6683 19.8694 24.6616 19.9095 24.6468C19.9496 24.6319 19.9863 24.6092 20.0175 24.5799L24.176 20.1706C24.2332 20.1097 24.265 20.0293 24.265 19.9458C24.265 19.8623 24.2332 19.7819 24.176 19.721L20.0175 15.3982C19.955 15.3518 19.8782 15.3291 19.8006 15.334C19.723 15.339 19.6496 15.3713 19.5936 15.4252C19.5376 15.4792 19.5025 15.5512 19.4946 15.6286C19.4868 15.706 19.5066 15.7837 19.5506 15.8478L23.493 19.9372L19.5506 24.1217C19.5059 24.1669 19.4757 24.2245 19.4639 24.287C19.452 24.3495 19.4591 24.4141 19.4841 24.4725C19.5092 24.531 19.5511 24.5807 19.6045 24.6152Z" fill="#94989A"/>
</svg>
