<svg width="16" height="16" viewBox="0 0 16 16" fill="none" xmlns="http://www.w3.org/2000/svg">
<path fill-rule="evenodd" clip-rule="evenodd" d="M3.64602 2.11808C3.92554 1.82892 4.38905 1.82892 4.66858 2.11808L6.40663 3.91607C6.67307 4.1917 6.67307 4.62892 6.40663 4.90455L5.82875 5.50235C5.53052 5.81086 5.44267 6.27268 5.62446 6.66715C6.09548 7.68921 6.56899 8.4827 7.19683 9.15115C7.8253 9.82028 8.60018 10.3554 9.66278 10.8731C10.0704 11.0716 10.5535 10.9724 10.8633 10.6519L11.3793 10.1181C11.6589 9.82892 12.1224 9.82892 12.4019 10.1181L13.9436 11.7129C14.209 11.9875 14.209 12.4229 13.9436 12.6974C12.9302 13.7457 11.3528 14.0363 10.097 13.3248C6.48912 11.2808 4.58265 9.23372 2.90115 5.84751C2.30664 4.65028 2.59153 3.20893 3.53089 2.23718L3.64602 2.11808ZM4.92422 1.87096C4.50493 1.43722 3.80966 1.43722 3.39038 1.87096L3.27525 1.99006C2.24181 3.05914 1.91479 4.6606 2.5827 6.00565C4.29677 9.45746 6.25411 11.5563 9.92169 13.6342C11.3311 14.4327 13.0836 14.0987 14.1992 12.9445C14.5978 12.5322 14.5978 11.8781 14.1992 11.4658L12.6575 9.87096C12.2383 9.43722 11.543 9.43722 11.1237 9.87096L10.6076 10.4048C10.3994 10.6202 10.0809 10.6813 9.81849 10.5534C8.78232 10.0487 8.04674 9.53669 7.45599 8.90773C6.86461 8.27809 6.41015 7.5225 5.94738 6.51833C5.82917 6.26182 5.88443 5.95632 6.08439 5.74947L6.66227 5.15166C7.06193 4.73822 7.06193 4.08239 6.66227 3.66895L4.92422 1.87096ZM8.38271 3.08445C9.88899 3.64201 10.8743 4.20891 11.6049 4.97025C12.3359 5.73196 12.8261 6.70292 13.3148 8.09714C13.3473 8.1898 13.4487 8.23858 13.5414 8.2061C13.634 8.17362 13.6828 8.07217 13.6503 7.97952C13.1554 6.56751 12.6446 5.54013 11.8615 4.72407C11.078 3.90765 10.0362 3.31735 8.50614 2.75101C8.41406 2.71692 8.31178 2.76394 8.2777 2.85602C8.24362 2.9481 8.29063 3.05037 8.38271 3.08445ZM10.8668 5.87976C10.3699 5.36189 9.69737 4.97358 8.65965 4.58945C8.56757 4.55537 8.52056 4.4531 8.55464 4.36102C8.58872 4.26894 8.691 4.22193 8.78308 4.25601C9.84453 4.64891 10.5736 5.06063 11.1234 5.63357C11.6728 6.20615 12.0291 6.92515 12.3723 7.9041C12.4048 7.99676 12.356 8.0982 12.2634 8.13068C12.1707 8.16316 12.0693 8.11438 12.0368 8.02172C11.6998 7.06056 11.3641 6.39798 10.8668 5.87976ZM8.79172 5.88738C9.32869 6.08614 9.66686 6.28361 9.91411 6.54127C10.1617 6.79928 10.3323 7.13229 10.507 7.63064C10.5395 7.7233 10.641 7.77208 10.7336 7.7396C10.8263 7.70712 10.875 7.60567 10.8426 7.51302C10.6616 6.99688 10.4704 6.60745 10.1707 6.29508C9.87054 5.98235 9.47585 5.76148 8.91515 5.55393C8.82307 5.51985 8.7208 5.56687 8.68671 5.65894C8.65263 5.75102 8.69964 5.8533 8.79172 5.88738Z" fill="#D1D3D4"/>
</svg>
