<svg width="24" height="25" viewBox="0 0 24 25" fill="none" xmlns="http://www.w3.org/2000/svg">
<path d="M18.6248 20.2008C17.0581 20.2008 15.429 19.7883 13.7373 18.9633C12.0456 18.1383 10.4623 16.9841 8.9873 15.5008C7.5123 14.0174 6.3623 12.4341 5.5373 10.7508C4.7123 9.06745 4.2998 7.44245 4.2998 5.87578C4.2998 5.56861 4.3998 5.3127 4.5998 5.10803C4.7998 4.9032 5.0498 4.80078 5.3498 4.80078H7.3498C7.63314 4.80078 7.87897 4.88828 8.0873 5.06328C8.29564 5.23828 8.44147 5.46745 8.5248 5.75078L8.9748 7.80078C9.0248 8.08411 9.01647 8.33411 8.9498 8.55078C8.88314 8.76745 8.76647 8.94245 8.5998 9.07578L6.4748 11.0008C6.90814 11.7841 7.37897 12.5049 7.8873 13.1633C8.39564 13.8216 8.93314 14.4424 9.4998 15.0258C10.0998 15.6258 10.7498 16.1841 11.4498 16.7008C12.1498 17.2174 12.9248 17.7091 13.7748 18.1758L15.8498 16.0508C16.0165 15.8674 16.1956 15.7508 16.3873 15.7008C16.579 15.6508 16.7998 15.6424 17.0498 15.6758L18.7498 16.0258C19.0331 16.0924 19.2623 16.2341 19.4373 16.4508C19.6123 16.6674 19.6998 16.9174 19.6998 17.2008V19.1508C19.6998 19.4508 19.5974 19.7008 19.3926 19.9008C19.1879 20.1008 18.932 20.2008 18.6248 20.2008ZM6.1498 10.3508L8.1498 8.55078C8.23314 8.48411 8.2873 8.39245 8.3123 8.27578C8.3373 8.15911 8.33314 8.05078 8.2998 7.95078L7.8498 5.90078C7.81647 5.76745 7.75814 5.66745 7.6748 5.60078C7.59147 5.53411 7.48314 5.50078 7.3498 5.50078H5.3498C5.2498 5.50078 5.16647 5.53411 5.0998 5.60078C5.03314 5.66745 4.9998 5.75078 4.9998 5.85078C4.9998 6.53411 5.10397 7.25911 5.3123 8.02578C5.52064 8.79245 5.7998 9.56745 6.1498 10.3508ZM14.4498 18.5008C15.1331 18.8508 15.8706 19.1049 16.6623 19.2633C17.454 19.4216 18.1165 19.5008 18.6498 19.5008C18.7498 19.5008 18.8331 19.4674 18.8998 19.4008C18.9665 19.3341 18.9998 19.2508 18.9998 19.1508V17.2008C18.9998 17.0674 18.9665 16.9591 18.8998 16.8758C18.8331 16.7924 18.7331 16.7341 18.5998 16.7008L16.8998 16.3508C16.7998 16.3174 16.7123 16.3133 16.6373 16.3383C16.5623 16.3633 16.4831 16.4174 16.3998 16.5008L14.4498 18.5008Z" fill="#295135"/>
</svg>
