<svg width="19" height="18" viewBox="0 0 19 18" fill="none" xmlns="http://www.w3.org/2000/svg">
<path d="M12.4926 11.7056C12.5254 11.7086 12.5575 11.7174 12.5873 11.7314L12.6303 11.7563L12.6337 11.7588L12.6366 11.7617L16.4716 15.5737L16.4726 15.5747C16.51 15.6143 16.5351 15.6643 16.5448 15.7178L16.5492 15.7583C16.5506 15.7988 16.5432 15.8393 16.5273 15.877C16.5113 15.9146 16.487 15.9483 16.4569 15.9756L16.4252 16.001C16.3805 16.0311 16.3278 16.047 16.2738 16.0483L16.2709 16.0488L16.2704 16.0483C16.2532 16.048 16.236 16.0469 16.2191 16.0435L16.1689 16.0283C16.1344 16.0144 16.103 15.9938 16.0766 15.9678L12.2416 12.1553L12.2387 12.1523L12.2362 12.1489C12.1974 12.0947 12.179 12.0288 12.1845 11.9624L12.1928 11.9136C12.2055 11.8658 12.231 11.8219 12.2665 11.7866L12.3046 11.7549C12.3453 11.7267 12.3929 11.7092 12.4428 11.7051L12.4926 11.7056ZM8.08634 1.94922C9.58125 1.94924 11.015 2.53948 12.0722 3.59033C13.1293 4.6412 13.7235 6.06646 13.7235 7.55273C13.7235 8.59175 13.4328 9.60885 12.8861 10.4912L12.7733 10.666C12.1927 11.5299 11.3826 12.2152 10.435 12.647L10.2436 12.73C9.27799 13.1275 8.22148 13.2498 7.19229 13.0854L6.98673 13.0488C5.96165 12.8461 5.01484 12.3643 4.25089 11.6592L4.1005 11.5151C3.31217 10.7315 2.77505 9.73302 2.55753 8.646C2.34002 7.55898 2.45168 6.43214 2.87833 5.4082C3.30502 4.38424 4.028 3.50925 4.95499 2.89355C5.88194 2.2779 6.97158 1.94924 8.08634 1.94922ZM8.08634 2.50586C6.82424 2.5074 5.61109 2.97535 4.68009 3.81348L4.49796 3.98584C3.54611 4.93201 3.01033 6.21479 3.0087 7.55273L3.01261 7.73975C3.04739 8.67235 3.34167 9.5784 3.86466 10.3564L3.97208 10.5103C4.52221 11.2664 5.27335 11.8572 6.14298 12.2153L6.31827 12.2837C7.19853 12.6087 8.15365 12.6855 9.07706 12.5029L9.26065 12.4629C10.1743 12.247 11.0114 11.7833 11.6772 11.1216L11.8075 10.9868C12.4464 10.3028 12.8827 9.45485 13.0663 8.53711L13.0995 8.35352C13.2386 7.49339 13.1513 6.61206 12.8461 5.79541L12.7777 5.62158C12.4175 4.75701 11.8229 4.00985 11.0619 3.46289L10.9076 3.35645C10.1248 2.83649 9.2128 2.54382 8.27433 2.50928L8.08634 2.50586Z" fill="#295135"/>
<path d="M16.4726 15.5747L16.4716 15.5737L12.6366 11.7617L12.6337 11.7588L12.6303 11.7563L12.5873 11.7314C12.5575 11.7174 12.5254 11.7086 12.4926 11.7056L12.4428 11.7051C12.3929 11.7092 12.3453 11.7267 12.3046 11.7549L12.2665 11.7866C12.231 11.8219 12.2055 11.8658 12.1928 11.9136L12.1845 11.9624C12.179 12.0288 12.1974 12.0947 12.2362 12.1489L12.2387 12.1523L12.2416 12.1553L16.0766 15.9678C16.103 15.9938 16.1344 16.0144 16.1689 16.0283L16.2191 16.0435C16.236 16.0469 16.2532 16.048 16.2704 16.0483L16.2709 16.0488L16.2738 16.0483C16.3278 16.047 16.3805 16.0311 16.4252 16.001L16.4569 15.9756C16.487 15.9483 16.5113 15.9146 16.5273 15.877C16.5432 15.8393 16.5506 15.7988 16.5492 15.7583L16.5448 15.7178C16.5351 15.6643 16.51 15.6143 16.4726 15.5747ZM16.4726 15.5747L16.4394 15.6064M8.08634 1.94922C9.58125 1.94924 11.015 2.53948 12.0722 3.59033C13.1293 4.6412 13.7235 6.06646 13.7235 7.55273C13.7235 8.59175 13.4328 9.60885 12.8861 10.4912L12.7733 10.666C12.1927 11.5299 11.3826 12.2152 10.435 12.647L10.2436 12.73C9.27799 13.1275 8.22148 13.2498 7.19229 13.0854L6.98673 13.0488C5.96165 12.8461 5.01484 12.3643 4.25089 11.6592L4.1005 11.5151C3.31217 10.7315 2.77505 9.73302 2.55753 8.646C2.34002 7.55898 2.45168 6.43214 2.87833 5.4082C3.30502 4.38424 4.028 3.50925 4.95499 2.89355C5.88194 2.2779 6.97158 1.94924 8.08634 1.94922ZM8.08634 2.50586C6.82424 2.5074 5.61109 2.97535 4.68009 3.81348L4.49796 3.98584C3.54611 4.93201 3.01033 6.21479 3.0087 7.55273L3.01261 7.73975C3.04739 8.67235 3.34167 9.57841 3.86466 10.3564L3.97208 10.5103C4.52221 11.2664 5.27335 11.8572 6.14298 12.2153L6.31827 12.2837C7.19853 12.6087 8.15365 12.6855 9.07706 12.5029L9.26065 12.4629C10.1743 12.247 11.0114 11.7833 11.6772 11.1216L11.8075 10.9868C12.4464 10.3028 12.8827 9.45485 13.0663 8.53711L13.0995 8.35352C13.2386 7.49339 13.1513 6.61206 12.8461 5.79541L12.7777 5.62158C12.4175 4.75701 11.8229 4.00985 11.0619 3.46289L10.9076 3.35645C10.1248 2.83649 9.2128 2.54382 8.27433 2.50928L8.08634 2.50586Z" stroke="#295135" stroke-width="0.63"/>
</svg>
