<svg width="37" height="36" viewBox="0 0 37 36" fill="none" xmlns="http://www.w3.org/2000/svg">
<path fill-rule="evenodd" clip-rule="evenodd" d="M14.9941 6.03188C16.0274 5.35059 17.2397 4.9915 18.4773 5.00015H18.4336C20.0908 5.00015 21.6801 5.65846 22.8519 6.83026C24.0237 8.00205 24.682 9.59133 24.682 11.2485C24.682 12.4862 24.3144 13.6959 23.6258 14.7244C22.9373 15.7529 21.9589 16.5537 20.8146 17.0253C19.6703 17.4969 18.4117 17.618 17.1985 17.3734C15.9853 17.1287 14.872 16.5293 13.9999 15.6511C13.1278 14.7728 12.5362 13.6554 12.3001 12.4405C12.064 11.2256 12.1939 9.96788 12.6736 8.82693C13.1532 7.68599 13.9609 6.71318 14.9941 6.03188ZM21.5118 6.73991C20.6136 6.13976 19.5576 5.81943 18.4773 5.81943C17.0288 5.81943 15.6395 6.39487 14.6152 7.41917C13.591 8.44346 13.0155 9.8327 13.0155 11.2813C13.0155 12.3615 13.3358 13.4175 13.936 14.3157C14.5361 15.2139 15.3892 15.914 16.3872 16.3274C17.3852 16.7407 18.4834 16.8489 19.5429 16.6382C20.6024 16.4274 21.5756 15.9072 22.3394 15.1434C23.1033 14.3795 23.6235 13.4063 23.8342 12.3468C24.045 11.2873 23.9368 10.1891 23.5234 9.19112C23.11 8.19309 22.41 7.34007 21.5118 6.73991Z" fill="#295135"/>
<path fill-rule="evenodd" clip-rule="evenodd" d="M8.65694 21.5007C11.5936 19.6131 14.9978 18.5805 18.4882 18.5185L18.4664 18.4967C21.9488 18.5603 25.3478 19.5725 28.2977 21.4242C29.2973 22.0344 30.1191 22.8963 30.6808 23.9239C31.2425 24.9515 31.5244 26.1085 31.4983 27.2793C31.4983 27.569 31.3833 27.8469 31.1784 28.0517C30.9735 28.2566 30.6957 28.3717 30.406 28.3717H6.59237C6.30265 28.3717 6.0248 28.2566 5.81995 28.0517C5.61509 27.8469 5.5 27.569 5.5 27.2793V27.1482C5.50625 26.0168 5.79906 24.9055 6.35112 23.9179C6.90318 22.9303 7.69647 22.0987 8.65694 21.5007ZM18.483 19.3379C15.1382 19.4023 11.8767 20.3929 9.06111 22.1998C8.22116 22.728 7.52771 23.4591 7.04472 24.3259C6.56172 25.1926 6.30472 26.167 6.29742 27.1592V27.2902C6.29595 27.3284 6.30221 27.3666 6.31583 27.4023C6.32944 27.438 6.35013 27.4706 6.37665 27.4982C6.40317 27.5257 6.43498 27.5476 6.47017 27.5626C6.50536 27.5775 6.54321 27.5852 6.58144 27.5852H30.4715C30.546 27.5825 30.6167 27.5517 30.6693 27.499C30.722 27.4463 30.7528 27.3756 30.7555 27.3012C30.7821 26.2736 30.5376 25.2571 30.0467 24.3539C29.5558 23.4508 28.8358 22.6928 27.9591 22.1561C25.116 20.3711 21.8394 19.3967 18.483 19.3379Z" fill="#295135"/>
</svg>
