<svg width="21" height="20" viewBox="0 0 21 20" fill="none" xmlns="http://www.w3.org/2000/svg">
<path d="M10.8062 13.3601C10.7022 13.3609 10.6019 13.3236 10.5253 13.2556L5.01558 8.22992C4.966 8.1981 4.92416 8.15624 4.89296 8.10723C4.86176 8.05821 4.84196 8.00322 4.83492 7.94607C4.82787 7.88893 4.83376 7.83098 4.85217 7.77625C4.87058 7.72152 4.90107 7.67133 4.94153 7.62913C4.98199 7.58692 5.03146 7.55372 5.0865 7.53184C5.14154 7.50996 5.20083 7.49993 5.26029 7.50241C5.31974 7.5049 5.37793 7.51986 5.43081 7.54625C5.48369 7.57265 5.53001 7.60985 5.56655 7.65527L10.7954 12.4197L15.8559 7.56967C15.936 7.51649 16.033 7.49253 16.1297 7.50204C16.2264 7.51156 16.3165 7.55391 16.3839 7.62162C16.4513 7.68932 16.4917 7.77796 16.4979 7.87176C16.504 7.96556 16.4756 8.05843 16.4177 8.13386L11.0654 13.2452C10.996 13.3122 10.904 13.353 10.8062 13.3601Z" fill="#295135" stroke="#295135"/>
</svg>
